<?xml version="1.0" encoding="UTF-8" standalone="no"?>
<!DOCTYPE svg PUBLIC "-//W3C//DTD SVG 1.1//EN"
 "http://www.w3.org/Graphics/SVG/1.1/DTD/svg11.dtd">
<!-- Generated by graphviz version 12.1.1 (20240910.0053)
 -->
<!-- Title: INFRA Pages: 1 -->
<svg width="241pt" height="512pt"
 viewBox="0.00 0.00 241.11 512.00" xmlns="http://www.w3.org/2000/svg" xmlns:xlink="http://www.w3.org/1999/xlink">
<g id="graph0" class="graph" transform="scale(1 1) rotate(0) translate(4 508)">
<title>INFRA</title>
<polygon fill="white" stroke="none" points="-4,4 -4,-508 237.11,-508 237.11,4 -4,4"/>
<!-- GlueJobRole -->
<g id="node1" class="node">
<title>GlueJobRole</title>
<path fill="#e6e6e6" stroke="black" stroke-width="2" d="M221.11,-72C221.11,-72 148.18,-72 148.18,-72 142.18,-72 136.18,-66 136.18,-60 136.18,-60 136.18,-12 136.18,-12 136.18,-6 142.18,0 148.18,0 148.18,0 221.11,0 221.11,0 227.11,0 233.11,-6 233.11,-12 233.11,-12 233.11,-60 233.11,-60 233.11,-66 227.11,-72 221.11,-72"/>
<text text-anchor="middle" x="184.64" y="-40.2" font-family="Arial" font-size="14.00">GlueJobRole</text>
<text text-anchor="middle" x="184.64" y="-23.4" font-family="Arial" font-size="14.00">(IAMRole)</text>
</g>
<!-- json&#45;to&#45;pq -->
<g id="node2" class="node">
<title>json&#45;to&#45;pq</title>
<path fill="#b7e0ff" stroke="black" stroke-width="2" d="M211.77,-180C211.77,-180 157.52,-180 157.52,-180 151.52,-180 145.52,-174 145.52,-168 145.52,-168 145.52,-120 145.52,-120 145.52,-114 151.52,-108 157.52,-108 157.52,-108 211.77,-108 211.77,-108 217.77,-108 223.77,-114 223.77,-120 223.77,-120 223.77,-168 223.77,-168 223.77,-174 217.77,-180 211.77,-180"/>
<text text-anchor="middle" x="184.64" y="-148.2" font-family="Arial" font-size="14.00">json&#45;to&#45;pq</text>
<text text-anchor="middle" x="184.64" y="-131.4" font-family="Arial" font-size="14.00">(GlueJob)</text>
</g>
<!-- json&#45;to&#45;pq&#45;&gt;GlueJobRole -->
<g id="edge1" class="edge">
<title>json&#45;to&#45;pq&#45;&gt;GlueJobRole</title>
<path fill="none" stroke="black" d="M184.64,-107.7C184.64,-99.93 184.64,-91.57 184.64,-83.43"/>
<polygon fill="black" stroke="black" points="188.14,-83.66 184.64,-73.66 181.14,-83.66 188.14,-83.66"/>
</g>
<!-- StepFunctionRole -->
<g id="node3" class="node">
<title>StepFunctionRole</title>
<path fill="#e6e6e6" stroke="black" stroke-width="2" d="M115.29,-180C115.29,-180 12,-180 12,-180 6,-180 0,-174 0,-168 0,-168 0,-120 0,-120 0,-114 6,-108 12,-108 12,-108 115.29,-108 115.29,-108 121.29,-108 127.29,-114 127.29,-120 127.29,-120 127.29,-168 127.29,-168 127.29,-174 121.29,-180 115.29,-180"/>
<text text-anchor="middle" x="63.64" y="-148.2" font-family="Arial" font-size="14.00">StepFunctionRole</text>
<text text-anchor="middle" x="63.64" y="-131.4" font-family="Arial" font-size="14.00">(IAMRole)</text>
</g>
<!-- Run Glue ETL Job -->
<g id="node4" class="node">
<title>Run Glue ETL Job</title>
<path fill="#b7e0ff" stroke="black" stroke-width="2" d="M217.72,-288C217.72,-288 103.57,-288 103.57,-288 97.57,-288 91.57,-282 91.57,-276 91.57,-276 91.57,-228 91.57,-228 91.57,-222 97.57,-216 103.57,-216 103.57,-216 217.72,-216 217.72,-216 223.72,-216 229.72,-222 229.72,-228 229.72,-228 229.72,-276 229.72,-276 229.72,-282 223.72,-288 217.72,-288"/>
<text text-anchor="middle" x="160.64" y="-256.2" font-family="Arial" font-size="14.00">Run Glue ETL Job</text>
<text text-anchor="middle" x="160.64" y="-239.4" font-family="Arial" font-size="14.00">(StepFunctionTask)</text>
</g>
<!-- Run Glue ETL Job&#45;&gt;json&#45;to&#45;pq -->
<g id="edge2" class="edge">
<title>Run Glue ETL Job&#45;&gt;json&#45;to&#45;pq</title>
<path fill="none" stroke="black" d="M168.64,-215.7C170.42,-207.84 172.33,-199.38 174.2,-191.15"/>
<polygon fill="black" stroke="black" points="177.56,-192.14 176.35,-181.62 170.73,-190.6 177.56,-192.14"/>
</g>
<!-- Run Glue ETL Job&#45;&gt;StepFunctionRole -->
<g id="edge3" class="edge">
<title>Run Glue ETL Job&#45;&gt;StepFunctionRole</title>
<path fill="none" stroke="black" d="M128.34,-215.7C120.41,-207.03 111.82,-197.65 103.57,-188.63"/>
<polygon fill="black" stroke="black" points="106.16,-186.27 96.82,-181.26 100.99,-191 106.16,-186.27"/>
</g>
<!-- GlueETLStateMachine -->
<g id="node5" class="node">
<title>GlueETLStateMachine</title>
<path fill="#b7e0ff" stroke="black" stroke-width="2" d="M178.07,-396C178.07,-396 45.22,-396 45.22,-396 39.22,-396 33.22,-390 33.22,-384 33.22,-384 33.22,-336 33.22,-336 33.22,-330 39.22,-324 45.22,-324 45.22,-324 178.07,-324 178.07,-324 184.07,-324 190.07,-330 190.07,-336 190.07,-336 190.07,-384 190.07,-384 190.07,-390 184.07,-396 178.07,-396"/>
<text text-anchor="middle" x="111.64" y="-364.2" font-family="Arial" font-size="14.00">GlueETLStateMachine</text>
<text text-anchor="middle" x="111.64" y="-347.4" font-family="Arial" font-size="14.00">(StateMachine)</text>
</g>
<!-- GlueETLStateMachine&#45;&gt;StepFunctionRole -->
<g id="edge5" class="edge">
<title>GlueETLStateMachine&#45;&gt;StepFunctionRole</title>
<path fill="none" stroke="black" d="M95.22,-323.86C90.52,-312.61 85.83,-299.97 82.64,-288 74.24,-256.41 69.47,-219.86 66.81,-191.62"/>
<polygon fill="black" stroke="black" points="70.32,-191.62 65.96,-181.96 63.35,-192.23 70.32,-191.62"/>
</g>
<!-- GlueETLStateMachine&#45;&gt;Run Glue ETL Job -->
<g id="edge4" class="edge">
<title>GlueETLStateMachine&#45;&gt;Run Glue ETL Job</title>
<path fill="none" stroke="black" d="M127.96,-323.7C131.68,-315.66 135.68,-307 139.57,-298.59"/>
<polygon fill="black" stroke="black" points="142.75,-300.06 143.76,-289.52 136.39,-297.12 142.75,-300.06"/>
</g>
<!-- GlueETLEventRule -->
<g id="node6" class="node">
<title>GlueETLEventRule</title>
<path fill="#cce0ac" stroke="black" stroke-width="2" d="M167.56,-504C167.56,-504 55.72,-504 55.72,-504 49.72,-504 43.72,-498 43.72,-492 43.72,-492 43.72,-444 43.72,-444 43.72,-438 49.72,-432 55.72,-432 55.72,-432 167.56,-432 167.56,-432 173.56,-432 179.56,-438 179.56,-444 179.56,-444 179.56,-492 179.56,-492 179.56,-498 173.56,-504 167.56,-504"/>
<text text-anchor="middle" x="111.64" y="-472.2" font-family="Arial" font-size="14.00">GlueETLEventRule</text>
<text text-anchor="middle" x="111.64" y="-455.4" font-family="Arial" font-size="14.00">(EventBridgeRule)</text>
</g>
<!-- GlueETLEventRule&#45;&gt;GlueETLStateMachine -->
<g id="edge6" class="edge">
<title>GlueETLEventRule&#45;&gt;GlueETLStateMachine</title>
<path fill="none" stroke="black" d="M111.64,-431.7C111.64,-423.93 111.64,-415.57 111.64,-407.43"/>
<polygon fill="black" stroke="black" points="115.14,-407.66 111.64,-397.66 108.14,-407.66 115.14,-407.66"/>
</g>
</g>
</svg>
