<?xml version="1.0" encoding="UTF-8" standalone="no"?>
<!DOCTYPE svg PUBLIC "-//W3C//DTD SVG 1.1//EN"
 "http://www.w3.org/Graphics/SVG/1.1/DTD/svg11.dtd">
<!-- Generated by graphviz version 12.1.1 (20240910.0053)
 -->
<!-- Title: INFRA Pages: 1 -->
<svg width="305pt" height="404pt"
 viewBox="0.00 0.00 304.64 404.00" xmlns="http://www.w3.org/2000/svg" xmlns:xlink="http://www.w3.org/1999/xlink">
<g id="graph0" class="graph" transform="scale(1 1) rotate(0) translate(4 400)">
<title>INFRA</title>
<polygon fill="white" stroke="none" points="-4,4 -4,-400 300.64,-400 300.64,4 -4,4"/>
<!-- GlueJobRole -->
<g id="node1" class="node">
<title>GlueJobRole</title>
<path fill="#e6e6e6" stroke="black" stroke-width="2" d="M84.94,-72C84.94,-72 12,-72 12,-72 6,-72 0,-66 0,-60 0,-60 0,-12 0,-12 0,-6 6,0 12,0 12,0 84.94,0 84.94,0 90.94,0 96.94,-6 96.94,-12 96.94,-12 96.94,-60 96.94,-60 96.94,-66 90.94,-72 84.94,-72"/>
<text text-anchor="middle" x="48.47" y="-40.2" font-family="Arial" font-size="14.00">GlueJobRole</text>
<text text-anchor="middle" x="48.47" y="-23.4" font-family="Arial" font-size="14.00">(IAMRole)</text>
</g>
<!-- json&#45;to&#45;pq -->
<g id="node2" class="node">
<title>json&#45;to&#45;pq</title>
<path fill="#b7e0ff" stroke="black" stroke-width="2" d="M75.6,-180C75.6,-180 21.34,-180 21.34,-180 15.34,-180 9.34,-174 9.34,-168 9.34,-168 9.34,-120 9.34,-120 9.34,-114 15.34,-108 21.34,-108 21.34,-108 75.6,-108 75.6,-108 81.6,-108 87.6,-114 87.6,-120 87.6,-120 87.6,-168 87.6,-168 87.6,-174 81.6,-180 75.6,-180"/>
<text text-anchor="middle" x="48.47" y="-148.2" font-family="Arial" font-size="14.00">json&#45;to&#45;pq</text>
<text text-anchor="middle" x="48.47" y="-131.4" font-family="Arial" font-size="14.00">(GlueJob)</text>
</g>
<!-- json&#45;to&#45;pq&#45;&gt;GlueJobRole -->
<g id="edge1" class="edge">
<title>json&#45;to&#45;pq&#45;&gt;GlueJobRole</title>
<path fill="none" stroke="black" d="M48.47,-107.7C48.47,-99.93 48.47,-91.57 48.47,-83.43"/>
<polygon fill="black" stroke="black" points="51.97,-83.66 48.47,-73.66 44.97,-83.66 51.97,-83.66"/>
</g>
<!-- StepFunctionRole -->
<g id="node3" class="node">
<title>StepFunctionRole</title>
<path fill="#e6e6e6" stroke="black" stroke-width="2" d="M221.11,-180C221.11,-180 117.82,-180 117.82,-180 111.82,-180 105.82,-174 105.82,-168 105.82,-168 105.82,-120 105.82,-120 105.82,-114 111.82,-108 117.82,-108 117.82,-108 221.11,-108 221.11,-108 227.11,-108 233.11,-114 233.11,-120 233.11,-120 233.11,-168 233.11,-168 233.11,-174 227.11,-180 221.11,-180"/>
<text text-anchor="middle" x="169.47" y="-148.2" font-family="Arial" font-size="14.00">StepFunctionRole</text>
<text text-anchor="middle" x="169.47" y="-131.4" font-family="Arial" font-size="14.00">(IAMRole)</text>
</g>
<!-- GlueETLStateMachine -->
<g id="node4" class="node">
<title>GlueETLStateMachine</title>
<ellipse fill="#e6e6e6" stroke="black" stroke-width="2" cx="108.47" cy="-252" rx="96.09" ry="36"/>
<text text-anchor="middle" x="108.47" y="-256.2" font-family="Arial" font-size="14.00">GlueETLStateMachine</text>
<text text-anchor="middle" x="108.47" y="-239.4" font-family="Arial" font-size="14.00">(StepFunction)</text>
</g>
<!-- GlueETLStateMachine&#45;&gt;json&#45;to&#45;pq -->
<g id="edge2" class="edge">
<title>GlueETLStateMachine&#45;&gt;json&#45;to&#45;pq</title>
<path fill="none" stroke="black" d="M88.82,-216.29C84.05,-207.87 78.89,-198.74 73.9,-189.92"/>
<polygon fill="black" stroke="black" points="77.08,-188.44 69.11,-181.47 70.99,-191.89 77.08,-188.44"/>
</g>
<!-- GlueETLStateMachine&#45;&gt;StepFunctionRole -->
<g id="edge3" class="edge">
<title>GlueETLStateMachine&#45;&gt;StepFunctionRole</title>
<path fill="none" stroke="black" d="M128.44,-216.29C133.29,-207.87 138.54,-198.74 143.62,-189.92"/>
<polygon fill="black" stroke="black" points="146.53,-191.87 148.49,-181.46 140.47,-188.38 146.53,-191.87"/>
</g>
<!-- ScheduledGlueJobRule -->
<g id="node5" class="node">
<title>ScheduledGlueJobRule</title>
<path fill="#cce0ac" stroke="black" stroke-width="2" d="M178.02,-396C178.02,-396 38.92,-396 38.92,-396 32.92,-396 26.92,-390 26.92,-384 26.92,-384 26.92,-336 26.92,-336 26.92,-330 32.92,-324 38.92,-324 38.92,-324 178.02,-324 178.02,-324 184.02,-324 190.02,-330 190.02,-336 190.02,-336 190.02,-384 190.02,-384 190.02,-390 184.02,-396 178.02,-396"/>
<text text-anchor="middle" x="108.47" y="-364.2" font-family="Arial" font-size="14.00">ScheduledGlueJobRule</text>
<text text-anchor="middle" x="108.47" y="-347.4" font-family="Arial" font-size="14.00">(EventBridgeRule)</text>
</g>
<!-- ScheduledGlueJobRule&#45;&gt;GlueETLStateMachine -->
<g id="edge4" class="edge">
<title>ScheduledGlueJobRule&#45;&gt;GlueETLStateMachine</title>
<path fill="none" stroke="black" d="M108.47,-323.7C108.47,-315.93 108.47,-307.57 108.47,-299.43"/>
<polygon fill="black" stroke="black" points="111.97,-299.66 108.47,-289.66 104.97,-299.66 111.97,-299.66"/>
</g>
<!-- SnsTopic -->
<g id="node6" class="node">
<title>SnsTopic</title>
<path fill="#cce0ac" stroke="black" stroke-width="2" d="M284.64,-396C284.64,-396 220.3,-396 220.3,-396 214.3,-396 208.3,-390 208.3,-384 208.3,-384 208.3,-336 208.3,-336 208.3,-330 214.3,-324 220.3,-324 220.3,-324 284.64,-324 284.64,-324 290.64,-324 296.64,-330 296.64,-336 296.64,-336 296.64,-384 296.64,-384 296.64,-390 290.64,-396 284.64,-396"/>
<text text-anchor="middle" x="252.47" y="-364.2" font-family="Arial" font-size="14.00">SnsTopic</text>
<text text-anchor="middle" x="252.47" y="-347.4" font-family="Arial" font-size="14.00">(SNSTopic)</text>
</g>
</g>
</svg>
