<?xml version="1.0" encoding="UTF-8" standalone="no"?>
<!DOCTYPE svg PUBLIC "-//W3C//DTD SVG 1.1//EN"
 "http://www.w3.org/Graphics/SVG/1.1/DTD/svg11.dtd">
<!-- Generated by graphviz version 12.1.1 (20240910.0053)
 -->
<!-- Title: INFRA Pages: 1 -->
<svg width="250pt" height="620pt"
 viewBox="0.00 0.00 249.72 620.00" xmlns="http://www.w3.org/2000/svg" xmlns:xlink="http://www.w3.org/1999/xlink">
<g id="graph0" class="graph" transform="scale(1 1) rotate(0) translate(4 616)">
<title>INFRA</title>
<polygon fill="white" stroke="none" points="-4,4 -4,-616 245.72,-616 245.72,4 -4,4"/>
<!-- GlueJobRole -->
<g id="node1" class="node">
<title>GlueJobRole</title>
<path fill="#e6e6e6" stroke="black" stroke-width="2" d="M221.11,-72C221.11,-72 148.18,-72 148.18,-72 142.18,-72 136.18,-66 136.18,-60 136.18,-60 136.18,-12 136.18,-12 136.18,-6 142.18,0 148.18,0 148.18,0 221.11,0 221.11,0 227.11,0 233.11,-6 233.11,-12 233.11,-12 233.11,-60 233.11,-60 233.11,-66 227.11,-72 221.11,-72"/>
<text text-anchor="middle" x="184.64" y="-40.2" font-family="Arial" font-size="14.00">GlueJobRole</text>
<text text-anchor="middle" x="184.64" y="-23.4" font-family="Arial" font-size="14.00">(IAMRole)</text>
</g>
<!-- json&#45;to&#45;pq -->
<g id="node2" class="node">
<title>json&#45;to&#45;pq</title>
<path fill="#b7e0ff" stroke="black" stroke-width="2" d="M211.77,-180C211.77,-180 157.52,-180 157.52,-180 151.52,-180 145.52,-174 145.52,-168 145.52,-168 145.52,-120 145.52,-120 145.52,-114 151.52,-108 157.52,-108 157.52,-108 211.77,-108 211.77,-108 217.77,-108 223.77,-114 223.77,-120 223.77,-120 223.77,-168 223.77,-168 223.77,-174 217.77,-180 211.77,-180"/>
<text text-anchor="middle" x="184.64" y="-148.2" font-family="Arial" font-size="14.00">json&#45;to&#45;pq</text>
<text text-anchor="middle" x="184.64" y="-131.4" font-family="Arial" font-size="14.00">(GlueJob)</text>
</g>
<!-- json&#45;to&#45;pq&#45;&gt;GlueJobRole -->
<g id="edge1" class="edge">
<title>json&#45;to&#45;pq&#45;&gt;GlueJobRole</title>
<path fill="none" stroke="black" d="M184.64,-107.7C184.64,-99.93 184.64,-91.57 184.64,-83.43"/>
<polygon fill="black" stroke="black" points="188.14,-83.66 184.64,-73.66 181.14,-83.66 188.14,-83.66"/>
</g>
<!-- StepFunctionRole -->
<g id="node3" class="node">
<title>StepFunctionRole</title>
<path fill="#e6e6e6" stroke="black" stroke-width="2" d="M115.29,-180C115.29,-180 12,-180 12,-180 6,-180 0,-174 0,-168 0,-168 0,-120 0,-120 0,-114 6,-108 12,-108 12,-108 115.29,-108 115.29,-108 121.29,-108 127.29,-114 127.29,-120 127.29,-120 127.29,-168 127.29,-168 127.29,-174 121.29,-180 115.29,-180"/>
<text text-anchor="middle" x="63.64" y="-148.2" font-family="Arial" font-size="14.00">StepFunctionRole</text>
<text text-anchor="middle" x="63.64" y="-131.4" font-family="Arial" font-size="14.00">(IAMRole)</text>
</g>
<!-- Run Glue ETL Job -->
<g id="node4" class="node">
<title>Run Glue ETL Job</title>
<path fill="#b7e0ff" stroke="black" stroke-width="2" d="M229.72,-288C229.72,-288 115.57,-288 115.57,-288 109.57,-288 103.57,-282 103.57,-276 103.57,-276 103.57,-228 103.57,-228 103.57,-222 109.57,-216 115.57,-216 115.57,-216 229.72,-216 229.72,-216 235.72,-216 241.72,-222 241.72,-228 241.72,-228 241.72,-276 241.72,-276 241.72,-282 235.72,-288 229.72,-288"/>
<text text-anchor="middle" x="172.64" y="-256.2" font-family="Arial" font-size="14.00">Run Glue ETL Job</text>
<text text-anchor="middle" x="172.64" y="-239.4" font-family="Arial" font-size="14.00">(StepFunctionTask)</text>
</g>
<!-- Run Glue ETL Job&#45;&gt;json&#45;to&#45;pq -->
<g id="edge2" class="edge">
<title>Run Glue ETL Job&#45;&gt;json&#45;to&#45;pq</title>
<path fill="none" stroke="black" d="M176.64,-215.7C177.52,-207.93 178.47,-199.57 179.39,-191.43"/>
<polygon fill="black" stroke="black" points="182.85,-191.98 180.5,-181.65 175.89,-191.19 182.85,-191.98"/>
</g>
<!-- Run Glue ETL Job&#45;&gt;StepFunctionRole -->
<g id="edge3" class="edge">
<title>Run Glue ETL Job&#45;&gt;StepFunctionRole</title>
<path fill="none" stroke="black" d="M136.35,-215.7C127.25,-206.85 117.38,-197.26 107.94,-188.08"/>
<polygon fill="black" stroke="black" points="110.48,-185.66 100.87,-181.2 105.6,-190.68 110.48,-185.66"/>
</g>
<!-- Publish to SNS -->
<g id="node5" class="node">
<title>Publish to SNS</title>
<path fill="#cce0ac" stroke="black" stroke-width="2" d="M227.72,-396C227.72,-396 141.57,-396 141.57,-396 135.57,-396 129.57,-390 129.57,-384 129.57,-384 129.57,-336 129.57,-336 129.57,-330 135.57,-324 141.57,-324 141.57,-324 227.72,-324 227.72,-324 233.72,-324 239.72,-330 239.72,-336 239.72,-336 239.72,-384 239.72,-384 239.72,-390 233.72,-396 227.72,-396"/>
<text text-anchor="middle" x="184.64" y="-364.2" font-family="Arial" font-size="14.00">Publish to SNS</text>
<text text-anchor="middle" x="184.64" y="-347.4" font-family="Arial" font-size="14.00">(SNSPublish)</text>
</g>
<!-- Publish to SNS&#45;&gt;Run Glue ETL Job -->
<g id="edge4" class="edge">
<title>Publish to SNS&#45;&gt;Run Glue ETL Job</title>
<path fill="none" stroke="black" d="M180.65,-323.7C179.77,-315.93 178.82,-307.57 177.9,-299.43"/>
<polygon fill="black" stroke="black" points="181.4,-299.19 176.79,-289.65 174.44,-299.98 181.4,-299.19"/>
</g>
<!-- GlueETLStateMachine -->
<g id="node6" class="node">
<title>GlueETLStateMachine</title>
<path fill="#b7e0ff" stroke="black" stroke-width="2" d="M168.07,-504C168.07,-504 35.22,-504 35.22,-504 29.22,-504 23.22,-498 23.22,-492 23.22,-492 23.22,-444 23.22,-444 23.22,-438 29.22,-432 35.22,-432 35.22,-432 168.07,-432 168.07,-432 174.07,-432 180.07,-438 180.07,-444 180.07,-444 180.07,-492 180.07,-492 180.07,-498 174.07,-504 168.07,-504"/>
<text text-anchor="middle" x="101.64" y="-472.2" font-family="Arial" font-size="14.00">GlueETLStateMachine</text>
<text text-anchor="middle" x="101.64" y="-455.4" font-family="Arial" font-size="14.00">(StateMachine)</text>
</g>
<!-- GlueETLStateMachine&#45;&gt;StepFunctionRole -->
<g id="edge6" class="edge">
<title>GlueETLStateMachine&#45;&gt;StepFunctionRole</title>
<path fill="none" stroke="black" d="M97.47,-431.62C90.58,-373.21 76.82,-256.61 69.14,-191.57"/>
<polygon fill="black" stroke="black" points="72.65,-191.46 68,-181.94 65.7,-192.28 72.65,-191.46"/>
</g>
<!-- GlueETLStateMachine&#45;&gt;Run Glue ETL Job -->
<g id="edge5" class="edge">
<title>GlueETLStateMachine&#45;&gt;Run Glue ETL Job</title>
<path fill="none" stroke="black" d="M101.51,-431.68C102.52,-401.96 106.64,-358.86 120.64,-324 124.25,-315.03 129.25,-306.16 134.73,-297.89"/>
<polygon fill="black" stroke="black" points="137.58,-299.92 140.46,-289.72 131.85,-295.89 137.58,-299.92"/>
</g>
<!-- GlueETLStateMachine&#45;&gt;Publish to SNS -->
<g id="edge7" class="edge">
<title>GlueETLStateMachine&#45;&gt;Publish to SNS</title>
<path fill="none" stroke="black" d="M129.28,-431.7C135.93,-423.21 143.12,-414.03 150.04,-405.19"/>
<polygon fill="black" stroke="black" points="152.78,-407.37 156.19,-397.33 147.27,-403.05 152.78,-407.37"/>
</g>
<!-- GlueETLEventRule -->
<g id="node7" class="node">
<title>GlueETLEventRule</title>
<path fill="#cce0ac" stroke="black" stroke-width="2" d="M157.56,-612C157.56,-612 45.72,-612 45.72,-612 39.72,-612 33.72,-606 33.72,-600 33.72,-600 33.72,-552 33.72,-552 33.72,-546 39.72,-540 45.72,-540 45.72,-540 157.56,-540 157.56,-540 163.56,-540 169.56,-546 169.56,-552 169.56,-552 169.56,-600 169.56,-600 169.56,-606 163.56,-612 157.56,-612"/>
<text text-anchor="middle" x="101.64" y="-580.2" font-family="Arial" font-size="14.00">GlueETLEventRule</text>
<text text-anchor="middle" x="101.64" y="-563.4" font-family="Arial" font-size="14.00">(EventBridgeRule)</text>
</g>
<!-- GlueETLEventRule&#45;&gt;GlueETLStateMachine -->
<g id="edge8" class="edge">
<title>GlueETLEventRule&#45;&gt;GlueETLStateMachine</title>
<path fill="none" stroke="black" d="M101.64,-539.7C101.64,-531.93 101.64,-523.57 101.64,-515.43"/>
<polygon fill="black" stroke="black" points="105.14,-515.66 101.64,-505.66 98.14,-515.66 105.14,-515.66"/>
</g>
</g>
</svg>
